<?xml version="1.0" encoding="UTF-8"?>
<!DOCTYPE svg PUBLIC "-//W3C//DTD SVG 1.0//EN" "http://www.w3.org/TR/2001/REC-SVG-20010904/DTD/svg10.dtd">
<!-- Creator: CorelDRAW 2018 (64-Bit) -->
<svg xmlns="http://www.w3.org/2000/svg" xml:space="preserve" width="8in" height="10.6667in" version="1.0" style="shape-rendering:geometricPrecision; text-rendering:geometricPrecision; image-rendering:optimizeQuality; fill-rule:evenodd; clip-rule:evenodd"
viewBox="0 0 8000 10666.66"
 xmlns:xlink="http://www.w3.org/1999/xlink">
 <defs>
  <style type="text/css">
   <![CDATA[
    .fil0 {fill:black}
    .fil4 {fill:black}
    .fil7 {fill:#060001}
    .fil29 {fill:#130101}
    .fil2 {fill:#240101}
    .fil12 {fill:#480908}
    .fil35 {fill:#5A5A5A}
    .fil20 {fill:#606060}
    .fil21 {fill:#64040B}
    .fil9 {fill:#673538}
    .fil6 {fill:#6D0C0B}
    .fil24 {fill:#730A03}
    .fil23 {fill:#740202}
    .fil15 {fill:#74040A}
    .fil16 {fill:#760A08}
    .fil22 {fill:#761516}
    .fil17 {fill:#771309}
    .fil10 {fill:#7C0403}
    .fil11 {fill:#7C0B0B}
    .fil5 {fill:#820303}
    .fil18 {fill:#83090A}
    .fil19 {fill:#84040A}
    .fil14 {fill:#881616}
    .fil13 {fill:#890B07}
    .fil8 {fill:#8B6566}
    .fil31 {fill:#913A46}
    .fil25 {fill:#A14639}
    .fil32 {fill:#A4585B}
    .fil26 {fill:#A63737}
    .fil28 {fill:#B14E4E}
    .fil27 {fill:#B56D6D}
    .fil1 {fill:#B80102}
    .fil3 {fill:#BA0001}
    .fil34 {fill:#C95055}
    .fil30 {fill:#CF5767}
    .fil33 {fill:#D28D8A}
    .fil36 {fill:#DE857B}
   ]]>
  </style>
 </defs>
 <g id="Layer_x0020_1">
  <metadata id="CorelCorpID_0Corel-Layer"/>
  <path class="fil0" d="M1628.33 3113.44l4438.11 6.06 -6.72 2542.9 -4432.89 -2.6 1.5 -2546.36zm2385.17 -64.63c-47.42,-19.61 -27.61,3.78 -42.45,-46.52 30.73,-14.84 32.15,-17.69 64.22,0 -9.67,37.79 -0.41,24.11 -21.78,46.52zm-199.13 -70.69c82.13,-97.13 132.51,-59.37 159.39,43.11l-34.74 62.96 -108.05 -8.33c-23.46,-45.42 -23.22,-34.29 -16.61,-97.75zm-2292.66 3036.65c236.16,73.15 1908.91,29.93 2306.48,29.55 311.69,-0.31 2177.56,33.95 2316.4,-24.14 73.09,-55.3 38.26,-1399.43 38.26,-1572.46l-0.01 -1204.53c-0.09,-62 3.81,-145.58 -1.56,-205.07 -8.44,-93.56 -24.54,-81.14 -65.51,-136.85 -207.07,27.3 -1956.69,7.38 -2324.65,6.78l-1723.41 -0.03c-145.69,0 -437.92,-49.09 -538.3,38.67 -59.02,113.56 -23.93,1306.19 -23.93,1538.09 0,291.02 -16.23,1322.15 16.21,1529.99z"/>
  <path class="fil1" d="M691.15 7893.88c27.04,-28.62 61.44,45.76 92.49,63.06 88.22,49.19 1988.63,-6.25 2208.83,2.2 692.76,26.56 1686.38,11.26 2392.35,11.26l1515.4 -5.63c78.46,-26.23 38.1,-7.26 68.5,-70.14l-81.31 39.99c-1.63,-36.08 18.46,-96.4 1.65,-117.75 -2.14,-2.71 -7.05,-5.69 -9.85,-7.59 -44.3,-30.16 -4.1,-8.24 -48.96,-7.41l-0.11 148.16c-127.8,-42.77 21.35,-77.57 -221.39,-74.35l-1780.07 0.63c-251.54,3.88 -156.91,-51.11 -225.21,-91.03l2.98 121.81c-228.3,20.67 -1431.2,39.81 -1510.84,-12.56 -3.35,-22.97 -13.55,-17.22 -4.49,-57.13 10.14,-44.67 13.02,-32.55 23.25,-47.28l-8.79 -80.81c39.57,-32.02 -7.09,-220.59 -33.99,-277.97 -44.1,60.02 -13.02,66.06 -95.73,92.47 4.6,-49.02 4.53,-64.39 17.6,-110.28 31.62,-111.04 64.87,-43.1 73.5,-131.06 10.16,-103.63 2.52,-56.96 -54.13,-81.28 -51.89,52.49 -28.38,-21.46 -32.55,83.98 -0.68,17.12 12.55,45.94 13.93,75.02 -82.87,-22.43 -73.17,-2.86 -74.04,-132.89l-111.09 -18.52c601.83,0 1243.46,17.89 1834.5,-6.53l444.75 7.04c139.9,1.06 328.98,8.87 463.28,-5.6l166.78 -5.71c191.8,25.61 177.28,6.94 333.56,0.43l334.48 9.31c103.63,-21.46 32.35,-1.98 67,-29.26l-37.78 -2.45 -5160.04 -3.73c13.58,-111.87 76.61,-110.44 70.98,-206.96l125.9 -259.66c8.52,-29.89 -8.42,-19.36 19.48,-59.81 1.58,-2.29 5.8,-6.18 7.56,-8.54 72.72,-97.49 21.31,-87.86 77.17,-143.23l24.93 -61.1c2.58,-5.17 10.2,-20.94 13.46,-26.23 19.96,-32.35 13.96,-22.09 32.72,-43.31l16.93 -11.46 17.41 -64.78c351.79,22.06 751.89,-14.47 1109.78,-3.22 592.57,18.63 1623.63,1.59 2242.27,-9.02 180.23,-3.09 375.15,-3.72 555.94,-0.74l426.16 3.16c68.72,18 63.12,45.43 78.54,97.5l-1.38 -7.33 60.56 128.11 60.17 163.01c27.17,17.93 1.82,-28.07 40.95,34.93 14.25,22.94 17.07,46.35 25.05,78.57l14.61 34.17c45.09,58.34 93.03,145.05 104.15,217.13l94.33 -49.27c4.93,-2.83 9.55,-5.85 13.92,-8.41 4.35,-2.54 10.39,-6.27 13.89,-8.32 3.5,-2.05 9.3,-5.47 14.04,-8.04 -74.3,-75.25 -43.76,32.44 -43.12,-111.09 -5.06,3.72 -12.33,4.13 -15.13,11.25 -2.53,6.43 -11.51,7.75 -14.76,8.44l-37.99 -1.26c68.91,-95.93 49.46,-56.84 68.68,-134.61 -54.53,-101.8 -101.06,-196.97 -151.07,-301.65 -62.33,-130.46 -90.37,-142.83 -108.1,-310.22l-18.59 71.31c-102.62,32.39 -999.67,11.09 -1180.85,9.75 -559.83,-4.13 -3243.85,25.14 -3530.64,-4.31l6.59 -85.59c-28.9,58.41 11.01,48.78 -82.03,225.91l-545.01 1103.98c-52.69,103.96 -209.87,354.74 -171.95,462.53z"/>
  <path class="fil2" d="M5802.65 7006.59c158.75,0.34 238.83,-39.94 252.53,129.7l-248.63 -4.43 -3.89 -125.28zm-658.87 5.27c166.38,7.48 249.75,-66.93 241.02,121.45l-234.17 -6.63 -6.85 -114.81zm-329.41 -0.53l218.77 -3.88 36.92 131.22 -254.6 -13.2 -1.09 -114.15zm-329.86 2.17l235.41 -2.52 7.37 127.87c-77.49,-4.04 -169.35,12.1 -242.92,-15.84l0.13 -109.51zm-1822.81 118.76c-1.24,-104.64 4.6,-121.44 108.58,-123.12 261.19,-4.23 1562.24,-8.94 1616.99,13.76l14.78 113.74 -1740.35 -4.38zm-428.15 -16.03c-62.82,38.95 -165.34,24.64 -248.36,20.47l10.25 -94.6c64.59,-45.56 169.54,-34.27 253.07,-28.9l-14.96 103.03zm3427.85 -106.28c65.19,17.49 63.23,61.91 67.09,126.91l-249.38 -9.17 -13.59 -110.01c46,-15.25 148.76,-20.37 195.89,-7.72zm-4334.5 50.68c59.77,-48.93 118.85,-39.97 229.49,-41.26 -0.8,19.81 -0.48,39.65 -3.82,59.14 -16.38,95.47 -177.82,62.67 -218.99,49.52l-6.67 -67.4zm1017.98 -44.78l235.83 4.66 -25.57 117.75 -229.8 -8.08 19.54 -114.33zm-700.27 116.12c12.19,-82.19 13.52,-111.21 90.74,-119.98 45.42,-5.16 141.53,0.71 182.82,10.91l-32.17 119.19 -241.39 -10.11zm2021.73 -272.94l215.1 -2.23c10.05,61.5 18.39,25.72 -8.76,97.85 -63.77,19.97 -152.32,20.26 -218.34,-0.25 -34.14,-97.78 -4.52,-79.02 12,-95.37zm-987.09 9.08c82.58,-51.44 138.89,-22.49 249.84,-20.74l-23.44 117.32 -235.64 -11.4 9.24 -85.18zm1954.91 92.05c-23.24,-43.85 -35.11,-49.93 -14.05,-110.71l216.89 6.09 10.72 103.1 -213.56 1.51zm-605.02 -100.87l81.43 -15 95.1 10.15 -6.65 112c-140.24,-0.09 -258.14,40.06 -232.02,-111.13l62.14 3.98zm-1684.73 96.9c1.72,-27.76 11.72,-66.08 19.81,-92.29 82.31,-40.99 140.85,-22.46 235.91,-15.3 -18.44,92.76 -0.59,113.09 -85.92,120.06 -43.78,3.56 -129.12,-2.17 -169.8,-12.47zm3320.82 0.93c-487.87,-14.48 -380.01,35.12 -391.51,-104.77l371.31 7.7c7.66,65.92 7.11,29.81 20.2,97.07zm-743.2 -121.06l239.64 21.44c1.94,49.09 8.4,58.4 11.91,83.23l-31.14 10.97c-98.67,20.52 56.35,-4.22 -34.67,5.28 -0.94,0.1 -51.76,1.22 -56.7,1.25 -83.68,0.48 -50.47,16.49 -117.07,-21.29l-11.96 -100.88zm-1579.74 16.36l93.27 -1.18 96.13 -8.17c100.24,150.71 -84.34,120.09 -204.48,106.63l15.09 -97.27zm2514.17 80.29l-18.39 3.18c-32.53,23.66 -16.68,17.43 -64.11,24.82 -33.47,-37.72 -45.55,-74.76 -37.4,-103.99 32.32,-12.63 121.19,-12.2 166.92,-7.89 64.28,6.06 72.11,50.68 74.16,97.09 -14.8,6.3 28.39,27.26 -73.22,14.26 -52.44,-6.71 -29.64,-13.1 -47.96,-27.46zm-1548.82 26.27l-29.72 -94.99c95.04,-42.55 143.79,-17.9 248.68,-16.26 -2.16,63.56 9.25,54.37 -0.98,112.22l-217.98 -0.98zm-1296.2 -106.51l226.87 2.24c15.89,51.61 0.63,53.1 -20.81,112.2l-222.02 -6.49 15.97 -107.96zm-962.25 1.82c51.96,-10.12 108.1,-19.72 167.3,-3.19 43.76,12.22 24.75,7.44 47.67,24.14l-25.13 95.7 -222.09 -17.77 32.26 -98.88zm3831.1 -156.56c34.31,46.37 38.83,30.61 34.72,102.68l-464.88 -10.32 -2.9 -94.42 433.06 2.06zm-738.09 -14.17l213.74 23.4 8.89 90.76 -222.84 -1.98 0.22 -112.18zm-96.87 14.55l18.15 98.41c-93.52,8.49 -136.47,14.24 -234.66,-1.07l-3.19 -107.57 219.7 10.24zm-527.4 -8.7l217.99 7.06 13.45 102 -232.33 -2.61 0.9 -106.44zm-309.61 63.72l11.91 -55.63 84.69 -7.77 124.28 13.29 8.71 99.15 -230.72 0.39 1.12 -49.43zm-315 -58.84l218.06 -3.27 10.16 110.67 -229.51 -12.24 1.3 -95.15zm-287.49 -1.95l90.08 -1.07 117.34 2.69 -7.83 109.46 -229.76 -13.22c4.29,-74.74 -11.81,-70.04 30.17,-97.86zm-308.37 -0.12l94.98 -4.98 111.56 8.76 -9.31 103.12 -227.39 -0.5c0.33,-21.46 -1.85,-46.74 4.6,-69.26 16,-55.83 -10.54,-2.29 25.55,-37.14zm-335.1 28.63c37.73,-41.25 25.36,-29.07 90.5,-28.49l136.8 0.09 -13.79 107.93 -227.29 -1.2 13.78 -78.33zm-283.1 -41.47c39.4,0.29 160.19,10.03 201.22,16.91l-15.91 91.94c-73.37,23.95 -156.27,15.51 -234.16,8.21 14.97,-73.81 1.82,-63.19 48.85,-117.06zm-350.23 53.87c42.09,-32.13 22.51,-37.86 101.78,-41.5l137.41 7.8 -18.2 95.88 -233.65 12.24 12.66 -74.41zm-295.24 -49.85l218.27 19.19 -35.99 96.9 -222.57 -6.74 40.29 -109.35zm1792.76 -125.06c59.75,-29.96 146.63,-11.15 226.3,-5.22l-11.49 93.13 -219.81 -3.2 5 -84.71zm1976.19 -4.47c45.78,14.83 59.7,42.94 46.12,80.84 -22.56,8.55 -138.74,16.19 -163.72,12.19 -68.13,-10.93 -66.25,-35.07 -56.55,-97.78 33.35,-1.71 145.15,-4.65 174.15,4.75zm-254.13 42.33c13.67,29.19 5.06,15.81 23.02,39.81 -145.22,19.34 -262.34,57.56 -237.7,-86.42l199.13 5.39c2.18,5.42 14.02,37.96 15.55,41.21zm-443.04 -45.68c176.7,-23.17 142.65,53.17 150.37,89.15 -274.05,25.28 -214.6,23.74 -223.14,-60.83 35.65,-24.87 10.59,-20.16 72.76,-28.31zm-675.08 9.78c53.16,-22.82 152.5,-15.07 213.78,-4.61l-2.18 79.26c-25.41,12.78 -101.83,20.01 -147.87,14.25 -81.25,-10.18 -64.97,-21.99 -63.74,-88.89zm-155.06 91.67c-49.86,5.43 -105.93,-3.75 -153.66,-21.59l2.82 -70.17c59.76,-25.73 159.66,-22.97 222.19,0.09 8.61,87.9 19.07,81.81 -71.35,91.67zm-753.26 -100.58c35.72,-10.92 184.31,-5.45 218.21,5.75 7.85,98.12 -28.13,110.57 -217.41,81.31l-0.8 -87.07zm-88.07 27.45c-10.77,54.98 63.01,98.15 -216.56,60.44l1.47 -78.97c61.13,-38.33 162.77,-25.13 215.08,18.53zm-496.17 -28.62l86.46 0.29 112.72 5.63 -11.82 83.33c-59.48,11.96 -178.33,23.71 -206.53,-20 -53.15,19.04 -8.36,-38.11 19.17,-69.25zm-320.89 9.76l99.7 -15.93 117.21 9.04c9.81,125.02 -134.9,106.76 -233.24,84.98 -9.5,-39.07 -8.35,-33.7 16.33,-78.09zm2113.31 -3.98c92.32,-28.91 234.95,-44.22 217.01,93.16l-192.61 -7.02c-27.05,-33.17 -45.5,-44.22 -24.4,-86.13zm-2406.39 -2.03l127.77 -4.74 79.77 -7.47c-4.16,53.17 -18.42,71.93 -42.56,107.96l-192.33 -4.68c-1.33,-62.54 -8.87,-49.2 27.36,-91.07zm-94.76 -0.96l-31.63 85.71 -208.32 3.8 23.77 -104.75 216.18 15.24zm1618.87 -148.08c58.56,17.39 53.48,26.41 51.11,98.81l-213.42 -6.7 7.09 -73.33c51.26,-26.89 97.05,-36.04 155.21,-18.77zm-452.46 57.67l6.24 -49.69 75.51 -2.14 129.19 9.37 1.95 66.05c-66.11,51.87 -76.03,10.93 -188,20.62 -33.6,-20.4 -27.27,36.6 -24.89,-44.21zm605.28 -43.63l61.76 -5.55 130.54 3.83 -0.21 88.98 -201.04 -13.62c-8.19,-16.93 -13.54,-3.7 -11.86,-40.54 2.28,-49.94 7.16,-18.02 20.8,-33.1zm-884.95 -12.26l66.44 0.65 135.22 7.81c-0.28,64.68 6.34,85.03 -62.42,91.73 -28.27,2.74 -129.92,-5.95 -167.5,-9.46l28.25 -90.74zm-888.93 -2.14c69.97,-8.04 133.09,4.69 205.81,12.17 -15.83,116.61 -116.41,97.7 -232.82,80.77l27.02 -92.94zm-582.3 -52.55l-16.93 11.46 14.4 38.32c30.55,-0.2 44.31,0.33 72.57,6l86.16 27.48c43.38,40.58 15.79,5.89 19.22,50.92 -59.87,31.07 -87.56,18.31 -263.46,7.92 28.07,85.17 24.5,55.14 357.68,53.61 -16.44,209.18 -310.07,19.2 -426.82,123.78l228.09 15.63c76.43,-0.43 145.9,6.11 225.65,7.91l-32.91 94.72c-98.46,33.57 -343.04,0.18 -434.02,14.1 -39.94,6.1 -28.26,3.07 -52.52,15.89 24.88,28.07 24.81,33.27 109.48,34.47 121.75,1.72 317.4,-13.39 426.27,2.83l-38.09 96.94c-110.88,31.1 -451.28,4.2 -592.91,11.37 5.63,96.52 -57.4,95.09 -70.98,206.96l5160.04 3.73c-2.82,-42.67 5.93,-24.21 -11.61,-44.74 -85.8,8.08 -185.19,20 -259.44,-10.23 -8.62,-22.57 -20.37,-75.98 -26.2,-102.16 108.02,-42.32 178.13,12.32 238.81,-32.39 -85.74,-72.56 -250.89,40.13 -305.67,-75.63 -46.87,-99.03 89.38,-40.85 165.73,-65.11 68.85,-21.88 24.83,43.48 57.52,-39.42l-14.61 -34.17c-77.44,16.56 13.38,5.37 -75.57,41.15l-189.11 -26.8 -15.45 -91.54c100.9,-11.38 136.57,-27.55 221.37,9.43l-7.25 -45.74c-71.46,-20.88 -170.41,-4.98 -255.17,-20.16l-20.98 -81.87 189.5 -10.96c29.57,-24.83 25.88,30.72 26.48,-50.02 -73.58,13.72 -206.64,29.17 -260.31,-11.84l-16.22 -71.69c-39.29,-83.88 -46.43,-55.59 -46.44,-55.6 -24.57,29.63 -55.5,-48.43 -23.72,101.44l11.41 50.22c-58.76,1.75 -335.25,15.73 -352.19,-18.88l-32.93 -95.98c-1.78,-10.98 -5.88,-12.83 -10.25,-18.28 -72.11,31.66 -34.02,-3.63 -47.96,73.94l23.2 58.94 -219.02 -7.07 -17.7 -38.76c9.98,-138.69 10.26,-35.75 -16.48,-85.06 -129.98,-0.31 -26.24,-11.16 -66.64,53.42l22.7 74.14 -203.05 -1.92c-47.32,-41.57 -30.11,-50.64 -28.48,-127.63 -75.24,-27.46 -30.29,-44.07 -113.59,-74.13 0.35,41.94 -1.34,35.4 4.89,71.31 21.69,125.02 39.97,33.58 41.71,124 -62.61,22.57 -150.39,21.52 -213.47,-2.57 -2.89,-118.93 8.06,-122.16 -55.59,-192.15 -29.7,36.37 -36.01,47.47 -35.7,109.83 0.19,39.23 11.22,35.2 12.64,100.01l-208.89 -14.35c-19.78,-141.65 59.87,-25 -8.95,-195.36 -140.49,7.61 -11.37,0.1 -63.85,44.22 -0.05,0.04 -6.43,29.7 -84.04,30.99 -110.86,1.83 -80.36,-46.45 -130.07,-73.86 -59.73,24.18 -5.78,38.98 -79.1,64.95 -39.33,13.93 -75.99,4.28 -129.8,11.06 -42.22,-80.21 2.51,-45.49 -50.54,-76.74 -77.08,31.74 0.71,-9.5 -55.59,67.53 -129.08,2.51 -84.69,-7.23 -170.89,3.2l-14.43 -68.21c-140.94,14.88 19.29,59.46 -148.53,68.34 -121.22,6.41 -107.19,-43.81 -129.44,-71.7 -88.91,37.14 10.39,-5.04 -51.23,45.39 -69.76,57.11 -65.83,1.43 -154.7,22.87 -20.32,41.57 0.15,10.05 6.62,73.98 9.1,89.85 -59.44,53.15 -208.38,58.63l-18.57 -90.08c-1.89,-5.2 -7.26,-7.46 -8.79,-17.96 -1.59,-10.89 -5.35,-12.95 -9.7,-18.33l-47.41 69.89c-3.14,8.03 -6.16,38.32 -8.17,57.14l-221.44 -3.19 34.64 -124.7c-69.63,-10.56 -76.9,-48.95 -109.72,-70.56 -80.77,69.68 -103.87,111.53 -219.45,35.87l-39.99 -31.55c-64.86,27.44 -20.02,36.04 -82.3,53.85 -18.99,5.43 -95.08,4.85 -129.66,36.67 76.41,9.7 72.32,-7.71 154.26,15.15l33.53 16.06c-29.8,130.39 -73.44,50.53 -238,73.6l30.01 -195.22c-109.28,3.54 -59.76,97.93 -283.5,43.04z"/>
  <path class="fil3" d="M6378.94 7023.47l74.48 155c-34.65,27.28 36.63,7.8 -67,29.26l-334.48 -9.31c-156.28,6.51 -141.76,25.18 -333.56,-0.43l-166.78 5.71c-134.3,14.46 -323.38,6.65 -463.28,5.6l-444.75 -7.04c-591.04,24.42 -1232.67,6.53 -1834.5,6.53l111.09 18.52c0.87,130.02 -8.83,110.46 74.04,132.89 -1.37,-29.08 -14.61,-57.9 -13.93,-75.02 4.17,-105.44 -19.35,-31.49 32.55,-83.98 56.64,24.33 64.29,-22.34 54.13,81.28 -8.63,87.95 -41.88,20.02 -73.5,131.06 -13.07,45.9 -13,61.26 -17.6,110.28 82.71,-26.41 51.63,-32.45 95.73,-92.47 26.9,57.39 73.56,245.96 33.99,277.97 3.19,-20.81 38.57,-549.74 78.23,-486.54l1385.74 4.57c0.19,102.88 34.21,188.31 3.71,269.24 -1.7,4.52 -4.64,8.74 -6.32,13.56 -15.3,43.67 -27.29,28.94 -4.91,144.63 8.52,44.07 22.83,113.18 41.44,130.5 68.3,39.92 -26.33,94.91 225.21,91.03l1780.07 -0.63c242.74,-3.22 93.6,31.58 221.39,74.35l0.11 -148.16c44.85,-0.83 4.66,-22.75 48.96,7.41 2.8,1.91 7.71,4.88 9.85,7.59 16.81,21.35 -3.28,81.67 -1.65,117.75l81.31 -39.99 26.36 -85.75c-48,-169.67 -367.5,-700.03 -365.14,-794.19 -50.89,-44.11 -132.68,-231.12 -157.13,-292.51 -19.22,77.77 0.23,38.69 -68.68,134.61l37.99 1.26c3.26,-0.69 12.23,-2.02 14.76,-8.44 2.8,-7.12 10.06,-7.53 15.13,-11.25 -0.64,143.53 -31.18,35.84 43.12,111.09 -4.74,2.56 -10.55,5.98 -14.04,8.04 -3.5,2.05 -9.54,5.78 -13.89,8.32 -4.37,2.55 -8.99,5.57 -13.92,8.41l-94.33 49.27z"/>
  <path class="fil4" d="M3162.52 7720.09l692.81 2.88 -12.46 137.52c21.29,-19.06 23.7,-45.99 12.73,-136.98l669.43 -1.19 -14.54 -210.96 -50.68 -283.27c-299.51,1.63 -595.29,1.5 -891.05,1.5 -296.13,0 -354.13,-40.74 -376.67,67.69 -12.34,59.33 -36.03,367.47 -29.58,422.81z"/>
  <path class="fil5" d="M1490.14 6101.46l-6.59 85.59c286.79,29.44 2970.81,0.18 3530.64,4.31 181.18,1.34 1078.23,22.64 1180.85,-9.75l18.59 -71.31 -11.04 5.14c-192.24,-80.71 -1992.9,-40.87 -2355.86,-39.91 -395.31,1.04 -790.69,-1.4 -1186,0.24 -367.24,1.52 -833.67,-37.63 -1170.59,25.68z"/>
  <path class="fil5" d="M6968.72 7894.63c-30.4,62.88 9.96,43.91 -68.5,70.14l-1515.4 5.63c-705.98,0 -1699.59,15.3 -2392.35,-11.26 -220.2,-8.45 -2120.61,46.99 -2208.83,-2.2 -31.06,-17.31 -65.45,-91.68 -92.49,-63.06 44.78,148.62 109.11,143.44 283.03,142.35l5466.92 -0.11c116.89,0 318.7,12.27 425.37,-0.3 87.55,-10.31 187.34,-135.03 128.61,-226.96l-26.36 85.75z"/>
  <path class="fil6" d="M4283.52 6430.57c5.07,-1.94 -23.96,-34.33 43.18,-11.96 63.58,21.19 15.67,-8.37 43.63,45.64 -76.13,5.13 -52.09,13.66 -86.81,-33.68zm-1326.29 -124.42c0.87,1.42 26.8,2.42 18.55,49.96 -8.63,49.74 2.98,21.67 -37.08,49.78 -22.41,-29.47 -57.39,59.89 -24.64,-64.67 13.46,-51.19 15.06,-23.76 43.17,-35.08zm-1312.51 45.84c223.74,54.89 174.22,-39.5 283.5,-43.04l-30.01 195.22c164.56,-23.07 208.2,56.78 238,-73.6l-33.53 -16.06c-81.93,-22.86 -77.85,-5.45 -154.26,-15.15 34.58,-31.82 110.67,-31.24 129.66,-36.67 62.28,-17.81 17.44,-26.41 82.3,-53.85l39.99 31.55c115.58,75.66 138.68,33.81 219.45,-35.87 32.82,21.61 40.09,60 109.72,70.56l-34.64 124.7 221.44 3.19c2,-18.81 5.02,-49.11 8.17,-57.14l47.41 -69.89c4.34,5.38 8.11,7.44 9.7,18.33 1.53,10.5 6.9,12.76 8.79,17.96l18.57 90.08c148.94,-5.48 217.48,31.22 208.38,-58.63 -6.47,-63.93 -26.94,-32.41 -6.62,-73.98 88.87,-21.44 84.94,34.24 154.7,-22.87 61.62,-50.43 -37.68,-8.25 51.23,-45.39 22.25,27.89 8.22,78.11 129.44,71.7 167.81,-8.87 7.59,-53.46 148.53,-68.34l14.43 68.21c86.2,-10.43 41.8,-0.69 170.89,-3.2 56.3,-77.03 -21.49,-35.8 55.59,-67.53 53.04,31.25 8.31,-3.47 50.54,76.74 53.81,-6.78 90.48,2.87 129.8,-11.06 73.32,-25.97 19.37,-40.78 79.1,-64.95 49.71,27.41 19.21,75.69 130.07,73.86 77.61,-1.28 83.98,-30.94 84.04,-30.99 52.48,-44.12 -76.64,-36.61 63.85,-44.22 68.82,170.36 -10.83,53.7 8.95,195.36l208.89 14.35c-1.42,-64.81 -12.45,-60.78 -12.64,-100.01 -0.3,-62.35 6.01,-73.46 35.7,-109.83 63.65,69.99 52.7,73.22 55.59,192.15 63.09,24.09 150.87,25.14 213.47,2.57 -1.74,-90.42 -20.02,1.02 -41.71,-124 -6.22,-35.91 -4.53,-29.37 -4.89,-71.31 83.3,30.06 38.36,46.67 113.59,74.13l127.22 -13.91c0.55,-108.19 11.17,-47.96 37.06,-78.74 101.19,19.85 562.26,13.31 706.47,3.55 260.15,-17.61 11.41,42.79 154.21,84.79 41.9,12.33 107.43,-23.67 199.96,4.13 -15.42,-52.07 -9.83,-79.5 -78.54,-97.5l-426.16 -3.16c-180.78,-2.98 -375.7,-2.35 -555.94,0.74 -618.64,10.61 -1649.7,27.65 -2242.27,9.02 -357.9,-11.25 -757.99,25.28 -1109.78,3.22l-17.41 64.78z"/>
  <path class="fil7" d="M3162.52 7720.09l-48.16 70.04 15.56 98.07 1422.98 4.58c9.62,-95.86 -3.99,-316.79 -42.41,-381.43l14.54 210.96 -669.43 1.19c10.97,90.99 8.56,117.91 -12.73,136.98l12.46 -137.52 -692.81 -2.88z"/>
  <path class="fil8" d="M1470.19 5967.19c20.84,72.88 20.65,61.23 67.19,92.85l-15.67 -45.26c-32.44,-207.84 -16.21,-1238.97 -16.21,-1529.99 0,-231.91 -35.09,-1424.54 23.93,-1538.09 100.38,-87.76 392.62,-38.67 538.3,-38.67l1723.41 0.03c367.96,0.59 2117.58,20.52 2324.65,-6.78l44.75 18.8c-48.16,-61.3 -103.65,-41.48 -219.58,-40.76l-4151.22 -0.07c-419.82,-1.75 -318.74,-43.74 -318.43,1123.74 0.17,651.91 11.06,1313.52 -1.12,1964.22z"/>
  <path class="fil9" d="M1521.71 6014.78l15.67 45.26c-2.98,2.34 -41,36.03 -47.24,41.42 336.93,-63.31 803.35,-24.16 1170.59,-25.68 395.31,-1.64 790.69,0.8 1186,-0.24 362.96,-0.96 2163.62,-40.81 2355.86,39.91l-36.09 -47c-2.13,-8.65 -7.33,-9.36 -11.67,-13.39 94.85,-61.82 62.16,-208.31 62.05,-347.2 -0.72,-854.08 15.43,-1813.37 1.24,-2651.37 -1.37,-80.91 -1.1,-109.92 -57.6,-136.41l-44.75 -18.8c40.96,55.71 57.07,43.29 65.51,136.85 5.36,59.49 1.47,143.07 1.56,205.07l0.01 1204.53c0,173.04 34.83,1517.17 -38.26,1572.46 -138.84,58.09 -2004.71,23.83 -2316.4,24.14 -397.57,0.38 -2070.33,43.59 -2306.48,-29.55z"/>
  <path class="fil10" d="M2661.7 7132.26l1740.35 4.38 -14.78 -113.74c-54.75,-22.7 -1355.8,-17.99 -1616.99,-13.76 -103.98,1.68 -109.82,18.48 -108.58,123.12z"/>
  <path class="fil11" d="M1326.57 6965.32c141.63,-7.17 482.03,19.74 592.91,-11.37l38.09 -96.94c-108.87,-16.22 -304.52,-1.11 -426.27,-2.83 -84.66,-1.2 -84.59,-6.4 -109.48,-34.47 24.25,-12.81 12.58,-9.79 52.52,-15.89 90.99,-13.92 335.56,19.48 434.02,-14.1l32.91 -94.72c-79.75,-1.81 -149.21,-8.34 -225.65,-7.91l-228.09 -15.63c116.74,-104.57 410.37,85.4 426.82,-123.78 -333.18,1.54 -329.6,31.57 -357.68,-53.61 -55.85,55.37 -4.45,45.74 -77.17,143.23 -1.76,2.37 -5.97,6.26 -7.56,8.54 -27.9,40.45 -10.95,29.92 -19.48,59.81l-125.9 259.66z"/>
  <path class="fil12" d="M4849.91 6375.07c-1.63,77 -18.84,86.06 28.48,127.63l-4.57 -80.36c61.11,6.17 125.26,5 184.91,8.13 40.41,-64.58 -63.34,-53.73 66.64,-53.42 26.74,49.3 26.46,-53.63 16.48,85.06l29.7 -52.89c62.92,10.84 141.08,17.91 183.82,39.79 13.94,-77.57 -24.14,-42.28 47.96,-73.94 4.37,5.45 8.47,7.3 10.25,18.28l32.93 95.98 12.31 -58.85c0.05,-0.02 257.9,-16.72 307.67,11.19l20.8 16.32c-31.78,-149.87 -0.85,-71.82 23.72,-101.44 0.01,0.01 7.15,-28.28 46.44,55.6l16.22 71.69 5.8 -56.28 201.07 8.89 -7.11 -68.88 1.38 7.33c-92.53,-27.8 -158.06,8.2 -199.96,-4.13 -142.8,-42 105.94,-102.4 -154.21,-84.79 -144.22,9.76 -605.28,16.3 -706.47,-3.55 -25.89,30.79 -36.51,-29.44 -37.06,78.74l-127.22 13.91z"/>
  <path class="fil13" d="M3114.36 7790.13l48.16 -70.04c-6.45,-55.34 17.24,-363.48 29.58,-422.81 22.54,-108.44 80.53,-67.69 376.67,-67.69 295.76,0 591.54,0.13 891.05,-1.5l50.68 283.27c38.42,64.64 52.03,285.56 42.41,381.43l-1422.98 -4.58 -15.56 -98.07zm-8.79 -80.81l8.79 80.81c-10.22,14.74 -13.11,2.62 -23.25,47.28 -9.06,39.9 1.14,34.16 4.49,57.13 79.64,52.37 1282.54,33.22 1510.84,12.56l-2.98 -121.81c-18.61,-17.33 -32.92,-86.44 -41.44,-130.5 -22.38,-115.69 -10.39,-100.96 4.91,-144.63 1.68,-4.81 4.62,-9.04 6.32,-13.56 30.5,-80.94 -3.52,-166.36 -3.71,-269.24l-1385.74 -4.57c-39.66,-63.2 -75.04,465.73 -78.23,486.54z"/>
  <path class="fil6" d="M6415.64 7176.02l37.78 2.45 -74.48 -155c-11.12,-72.07 -59.06,-158.78 -104.15,-217.13 -32.68,82.9 11.33,17.54 -57.52,39.42 -76.35,24.27 -212.6,-33.91 -165.73,65.11 54.78,115.76 219.93,3.07 305.67,75.63 -60.69,44.7 -130.79,-9.93 -238.81,32.39 5.83,26.18 17.57,79.59 26.2,102.16 74.25,30.24 173.64,18.31 259.44,10.23 17.54,20.52 8.78,2.07 11.61,44.74z"/>
  <path class="fil11" d="M5450.14 6790.06l464.88 10.32c4.11,-72.06 -0.41,-56.31 -34.72,-102.68l-433.06 -2.06 2.9 94.42z"/>
  <path class="fil14" d="M5273.73 6852.33c11.5,139.89 -96.36,90.29 391.51,104.77 -13.08,-67.27 -12.54,-31.15 -20.2,-97.07l-371.31 -7.7z"/>
  <path class="fil15" d="M1995.44 7042.09l-10.25 94.6c83.02,4.17 185.54,18.48 248.36,-20.47l14.96 -103.03c-83.54,-5.37 -188.48,-16.66 -253.07,28.9z"/>
  <path class="fil6" d="M5479.11 7127.68l249.38 9.17c-3.85,-65 -1.89,-109.42 -67.09,-126.91 -47.12,-12.65 -149.88,-7.52 -195.89,7.72l13.59 110.01z"/>
  <path class="fil16" d="M1644.62 7131.96l241.39 10.11 32.17 -119.19c-41.3,-10.19 -137.4,-16.07 -182.82,-10.91 -77.22,8.78 -78.55,37.8 -90.74,119.98z"/>
  <path class="fil16" d="M5806.54 7131.87l248.63 4.43c-13.69,-169.64 -93.78,-129.36 -252.53,-129.7l3.89 125.28z"/>
  <path class="fil16" d="M4484.38 7123c73.57,27.94 165.43,11.8 242.92,15.84l-7.37 -127.87 -235.41 2.52 -0.13 109.51z"/>
  <path class="fil16" d="M2344.42 6956.17c40.69,10.3 126.03,16.03 169.8,12.47 85.33,-6.96 67.48,-27.3 85.92,-120.06 -95.06,-7.17 -153.6,-25.7 -235.91,15.3 -8.09,26.21 -18.1,64.54 -19.81,92.29z"/>
  <path class="fil11" d="M5150.62 7126.67l234.17 6.63c8.73,-188.37 -74.64,-113.96 -241.02,-121.45l6.85 114.81z"/>
  <path class="fil17" d="M2679.26 6868.09l-9.24 85.18 235.64 11.4 23.44 -117.32c-110.95,-1.75 -167.26,-30.7 -249.84,20.74z"/>
  <path class="fil11" d="M2325.35 7130.17l229.8 8.08 25.57 -117.75 -235.83 -4.66 -19.54 114.33z"/>
  <path class="fil16" d="M5446.54 6489.32c16.94,34.61 293.43,20.63 352.19,18.88l-11.41 -50.22 -20.8 -16.32c-49.77,-27.91 -307.62,-11.2 -307.67,-11.19l-12.31 58.85z"/>
  <path class="fil16" d="M4307.65 6958.96l217.98 0.98c10.23,-57.86 -1.18,-48.66 0.98,-112.22 -104.89,-1.65 -153.64,-26.29 -248.68,16.26l29.72 94.99z"/>
  <path class="fil11" d="M2630.41 6796.42c77.89,7.3 160.79,15.74 234.16,-8.21l15.91 -91.94c-41.03,-6.88 -161.83,-16.62 -201.22,-16.91 -47.03,53.87 -33.88,43.24 -48.85,117.06z"/>
  <path class="fil6" d="M2995.48 6960.41l222.02 6.49c21.44,-59.11 36.7,-60.6 20.81,-112.2l-226.87 -2.24 -15.97 107.96z"/>
  <path class="fil18" d="M4934 6936.92c66.61,37.78 33.39,21.78 117.07,21.29 4.94,-0.03 55.77,-1.15 56.7,-1.25 91.02,-9.5 -64,15.24 34.67,-5.28l31.14 -10.97c-3.51,-24.83 -9.98,-34.14 -11.91,-83.23l-239.64 -21.44 11.96 100.88z"/>
  <path class="fil11" d="M2049.2 6854.27l-32.26 98.88 222.09 17.77 25.13 -95.7c-22.92,-16.69 -3.91,-11.92 -47.67,-24.14 -59.2,-16.53 -115.34,-6.93 -167.3,3.19z"/>
  <path class="fil16" d="M4828.82 6795.42c98.19,15.31 141.14,9.56 234.66,1.07l-18.15 -98.41 -219.7 -10.24 3.19 107.57z"/>
  <path class="fil15" d="M4941.79 7079.16c-50.83,16.33 -43.85,21.15 -84.7,-18.53 15.72,-14.93 -55.16,-58.12 60.09,-26.85 66.15,17.96 10.76,-4.43 24.61,45.38zm-126.33 46.32l254.6 13.2 -36.92 -131.22 -218.77 3.88 1.09 114.15z"/>
  <path class="fil14" d="M1326.91 7060.63l6.67 67.4c41.17,13.15 202.61,45.95 218.99,-49.52 3.35,-19.49 3.03,-39.33 3.82,-59.14 -110.63,1.29 -169.72,-7.67 -229.49,41.26z"/>
  <path class="fil16" d="M4634.17 6960.15l213.56 -1.51 -10.72 -103.1 -216.89 -6.09c-21.06,60.78 -9.19,66.86 14.05,110.71z"/>
  <path class="fil11" d="M4517.03 6795.83l232.33 2.61 -13.45 -102 -217.99 -7.06 -0.9 106.44z"/>
  <path class="fil11" d="M1993.5 6792.73l222.57 6.74 35.99 -96.9 -218.27 -19.19 -40.29 109.35z"/>
  <path class="fil11" d="M3892.03 6789.43l229.51 12.24 -10.16 -110.67 -218.06 3.27 -1.3 95.15z"/>
  <path class="fil16" d="M4121.78 6630.37c47.73,17.84 103.8,27.02 153.66,21.59 90.42,-9.85 79.96,-3.77 71.35,-91.67 -62.52,-23.06 -162.42,-25.82 -222.19,-0.09l-2.82 70.17z"/>
  <path class="fil11" d="M1556.67 6494.09c175.91,10.39 203.59,23.15 263.46,-7.92 -3.43,-45.04 24.17,-10.34 -19.22,-50.92l-86.16 -27.48c-28.26,-5.67 -42.02,-6.2 -72.57,-6l-14.4 -38.32c-18.76,21.22 -12.77,10.96 -32.72,43.31 -3.26,5.29 -10.88,21.06 -13.46,26.23l-24.93 61.1z"/>
  <path class="fil10" d="M5141.98 6795.72l222.84 1.98 -8.89 -90.76 -213.74 -23.4 -0.22 112.18z"/>
  <path class="fil6" d="M3821.56 6643.04l219.81 3.2 11.49 -93.13c-79.67,-5.93 -166.55,-24.74 -226.3,5.22l-5 84.71z"/>
  <path class="fil6" d="M3666.35 6859.02l105.24 16.3c-32.39,65.15 -30.54,9.39 -104.26,31.06l-0.98 -47.36zm0 0c-16.52,16.34 -46.13,-2.41 -12,95.37 66.02,20.51 154.57,20.22 218.34,0.25 27.14,-72.12 18.81,-36.35 8.76,-97.85l-215.1 2.23z"/>
  <path class="fil19" d="M3219.02 6560.29l-1.47 78.97c279.56,37.71 205.78,-5.46 216.56,-60.44 -52.31,-43.66 -153.95,-56.87 -215.08,-18.53z"/>
  <path class="fil15" d="M5838.08 6935.87l-23.35 -59.57c50.13,-22.08 46.92,6.07 41.74,56.39 18.31,14.36 -4.48,20.74 47.96,27.46 101.61,13 58.43,-7.95 73.22,-14.26 -2.05,-46.41 -9.88,-91.03 -74.16,-97.09 -45.73,-4.31 -134.6,-4.74 -166.92,7.89 -8.15,29.23 3.93,66.27 37.4,103.99 47.44,-7.39 31.58,-1.16 64.11,-24.82z"/>
  <path class="fil16" d="M4754.76 6642.11l192.61 7.02c17.94,-137.37 -124.69,-122.06 -217.01,-93.16 -21.1,41.91 -2.65,52.96 24.4,86.13z"/>
  <path class="fil16" d="M3522.98 6638.44c189.28,29.26 225.26,16.8 217.41,-81.31 -33.91,-11.2 -182.49,-16.67 -218.21,-5.75l0.8 87.07z"/>
  <path class="fil11" d="M5571.64 6636c-17.96,-24 -9.35,-10.62 -23.02,-39.81 -1.53,-3.26 -13.37,-35.79 -15.55,-41.21l-199.13 -5.39c-24.64,143.97 92.48,105.76 237.7,86.42z"/>
  <path class="fil13" d="M5032.81 6578.82c8.54,84.58 -50.91,86.11 223.14,60.83 -7.72,-35.98 26.33,-112.31 -150.37,-89.15 -62.17,8.15 -37.11,3.44 -72.76,28.31z"/>
  <path class="fil11" d="M4430.5 6560.29c-1.24,66.91 -17.52,78.72 63.74,88.89 46.03,5.76 122.46,-1.46 147.87,-14.25l2.18 -79.26c-61.28,-10.46 -160.62,-18.21 -213.78,4.61z"/>
  <path class="fil14" d="M2013.02 6537.75l-23.77 104.75 208.32 -3.8 31.63 -85.71 -216.18 -15.24z"/>
  <path class="fil11" d="M5848.87 6634.7c13.58,-37.89 -0.34,-66.01 -46.12,-80.84 -29,-9.4 -140.8,-6.46 -174.15,-4.75 -9.7,62.7 -11.57,86.85 56.55,97.78 24.98,4.01 141.16,-3.63 163.72,-12.19z"/>
  <path class="fil20" d="M3814.37 2978.13c-6.61,63.46 -6.85,52.33 16.61,97.75l108.05 8.33 34.74 -62.96c-26.88,-102.48 -77.27,-140.24 -159.39,-43.11z"/>
  <path class="fil11" d="M2200 6497.48c116.42,16.93 217,35.84 232.82,-80.77 -72.72,-7.48 -135.84,-20.2 -205.81,-12.17l-27.02 92.94z"/>
  <path class="fil10" d="M2962.36 6720.83l-13.78 78.33 227.29 1.2 13.79 -107.93 -136.8 -0.09c-13.07,26.36 2.03,30.54 -33.03,45.61 -101.35,43.59 -24.37,25.61 -57.48,-17.12z"/>
  <path class="fil15" d="M4110.59 6844.28l-2.93 69c-66.45,-25.22 -5.17,-2.66 -70.17,-5.95 -84.44,-4.27 -19.84,16.78 -59.17,-32.01 29.91,-32.48 -49.7,-58.96 50.83,-16.04l-62.14 -3.98c-26.12,151.19 91.78,111.04 232.02,111.13l6.65 -112 -95.1 -10.15z"/>
  <path class="fil16" d="M3685.77 6497.01l213.42 6.7c2.37,-72.39 7.45,-81.41 -51.11,-98.81 -58.16,-17.26 -103.96,-8.12 -155.21,18.77l-7.09 73.33z"/>
  <path class="fil15" d="M2329.03 6733.23l-12.66 74.41 233.65 -12.24 18.2 -95.88 -137.41 -7.8c9.93,60.39 9.76,30.73 -13.22,63.5 -50.62,2.05 -55.94,-4.82 -88.56,-22z"/>
  <path class="fil21" d="M6001.38 6718.22c91.39,-15.28 137.95,-15.25 186.15,62.85l-163.09 4.94 -23.06 -67.8zm258.8 53.95c-7.98,-32.22 -10.8,-55.63 -25.05,-78.57 -39.13,-63 -13.78,-17 -40.95,-34.93l7.25 45.74c-84.8,-36.97 -120.47,-20.8 -221.37,-9.43l15.45 91.54 189.11 26.8c88.95,-35.79 -1.87,-24.6 75.57,-41.15z"/>
  <path class="fil15" d="M4208.32 6753.11l-1.12 49.43 230.72 -0.39 -8.71 -99.15 -124.28 -13.29c-15.49,68.68 21.12,58.72 -96.61,63.4z"/>
  <path class="fil22" d="M5873.7 6483.82c53.67,41.01 186.73,25.56 260.31,11.84l-60.56 -128.11 7.11 68.88 -201.07 -8.89 -5.8 56.28z"/>
  <path class="fil10" d="M3435.57 6851.22l-2.52 57.35c-57.96,-5.3 -25.43,-7.29 -91.17,9.11l0.43 -65.28 -15.09 97.27c120.14,13.46 304.72,44.08 204.48,-106.63l-96.13 8.17z"/>
  <path class="fil23" d="M3695.92 6691.25l15.2 72.78c-107.8,-34.47 -15.34,-33.93 -126.9,-0.79l21.61 -70.93c-41.98,27.83 -25.88,23.12 -30.17,97.86l229.76 13.22 7.83 -109.46 -117.34 -2.69z"/>
  <path class="fil6" d="M5141.86 6462.11l17.7 38.76 219.02 7.07 -23.2 -58.94c-42.74,-21.89 -120.9,-28.95 -183.82,-39.79l-29.7 52.89z"/>
  <path class="fil21" d="M5977.82 6629.22l-41.74 -64.63c27.88,-0.43 52.3,-1.34 79.89,0.93l46.07 6.97c2.98,0.56 8.5,2.41 12.71,3.75 0.09,0.76 57.96,-7.14 -21.66,40.78 -32.9,19.81 8.8,25.33 -75.27,12.2zm216.36 29.44l-60.17 -163.01c-0.6,80.74 3.09,25.19 -26.48,50.02l-189.5 10.96 20.98 81.87c84.76,15.17 183.7,-0.72 255.17,20.16z"/>
  <path class="fil6" d="M3182.39 6407.33c-1.07,91.48 12.08,29.31 -21.32,57.82 -64.72,-19.74 -32.13,29.32 -45.13,-58.48l-28.25 90.74c37.58,3.5 139.23,12.2 167.5,9.46 68.76,-6.7 62.13,-27.05 62.42,-91.73l-135.22 -7.81z"/>
  <path class="fil15" d="M2617.05 6559.96c-24.67,44.39 -25.83,39.01 -16.33,78.09 98.34,21.78 243.05,40.05 233.24,-84.98l-117.21 -9.04 -12.87 61.37 -82.96 5.82 -3.87 -51.26z"/>
  <path class="fil24" d="M3392.44 6687.22c22.13,54.38 2.24,-0.95 20.09,68.66l-144.48 6.67 29.4 -70.35c-36.09,34.85 -9.55,-18.69 -25.55,37.14 -6.46,22.52 -4.27,47.8 -4.6,69.26l227.39 0.5 9.31 -103.12 -111.56 -8.76z"/>
  <path class="fil15" d="M2323.97 6553.95c-36.23,41.87 -28.69,28.53 -27.36,91.07l192.33 4.68c24.14,-36.03 38.4,-54.78 42.56,-107.96l-79.77 7.47c-7.69,49.3 1.43,39.43 -45.89,48.78 -46.59,9.2 21.26,-20.69 -67.83,8.15l-14.05 -52.19z"/>
  <path class="fil15" d="M3024.41 6550.49l-11.58 53.75c-72.41,-5.6 -5.79,-13.83 -95.52,10.82l20.63 -64.85c-27.53,31.14 -72.31,88.28 -19.17,69.25 28.2,43.71 147.05,31.96 206.53,20l11.82 -83.33 -112.72 -5.63z"/>
  <path class="fil15" d="M3395.62 6462.57c-2.37,80.81 -8.7,23.81 24.89,44.21 111.98,-9.69 121.89,31.25 188,-20.62l-1.95 -66.05 -129.19 -9.37 -0.82 55.04 -80.93 -3.21z"/>
  <path class="fil16" d="M4878.39 6502.7l203.05 1.92 -22.7 -74.14c-59.65,-3.14 -123.8,-1.96 -184.91,-8.13l4.57 80.36z"/>
  <path class="fil15" d="M4062.65 6413.39c2.48,72.26 4.28,29.3 -12.13,49.47l-37.02 3.94c-12.63,-17.43 -21.55,31.84 -12.61,-47.86 -13.64,15.08 -18.52,-16.85 -20.8,33.1 -1.68,36.84 3.67,23.61 11.86,40.54l201.04 13.62 0.21 -88.98 -130.54 -3.83z"/>
  <path class="fil25" d="M6024.44 6786.02l163.09 -4.94c-48.2,-78.11 -94.76,-78.13 -186.15,-62.85l23.06 67.8z"/>
  <path class="fil25" d="M3392.44 6687.22l-94.98 4.98 -29.4 70.35 144.48 -6.67c-17.85,-69.61 2.04,-14.28 -20.09,-68.66z"/>
  <path class="fil26" d="M6053.09 6617.02c79.61,-47.93 21.75,-40.03 21.66,-40.78 -4.21,-1.34 -9.74,-3.19 -12.71,-3.75l-46.07 -6.97c-27.59,-2.27 -52.01,-1.36 -79.89,-0.93l41.74 64.63c84.07,13.13 42.37,7.61 75.27,-12.2z"/>
  <path class="fil27" d="M4110.59 6844.28l-81.43 15c-100.53,-42.92 -20.92,-16.43 -50.83,16.04 39.32,48.79 -25.28,27.74 59.17,32.01 65,3.29 3.72,-19.27 70.17,5.95l2.93 -69z"/>
  <path class="fil28" d="M3695.92 6691.25l-90.08 1.07 -21.61 70.93c111.56,-33.13 19.1,-33.68 126.9,0.79l-15.2 -72.78z"/>
  <path class="fil29" d="M2975.78 6356.11c8.25,-47.54 -17.68,-48.54 -18.55,-49.96 -28.11,11.32 -29.71,-16.1 -43.17,35.08 -32.75,124.56 2.23,35.19 24.64,64.67 40.06,-28.12 28.45,-0.04 37.08,-49.78z"/>
  <path class="fil30" d="M2451.74 6549.21l-127.77 4.74 14.05 52.19c89.09,-28.83 21.24,1.06 67.83,-8.15 47.32,-9.35 38.2,0.51 45.89,-48.78z"/>
  <path class="fil30" d="M3435.57 6851.22l-93.27 1.18 -0.43 65.28c65.74,-16.4 33.21,-14.41 91.17,-9.11l2.52 -57.35z"/>
  <path class="fil31" d="M2716.75 6544.02l-99.7 15.93 3.87 51.26 82.96 -5.82 12.87 -61.37z"/>
  <path class="fil32" d="M4208.32 6753.11c117.73,-4.68 81.11,5.28 96.61,-63.4l-84.69 7.77 -11.91 55.63z"/>
  <path class="fil28" d="M2329.03 6733.23c32.62,17.18 37.94,24.05 88.56,22 22.98,-32.77 23.14,-3.11 13.22,-63.5 -79.26,3.64 -59.69,9.38 -101.78,41.5z"/>
  <path class="fil28" d="M3024.41 6550.49l-86.46 -0.29 -20.63 64.85c89.73,-24.65 23.11,-16.42 95.52,-10.82l11.58 -53.75z"/>
  <path class="fil33" d="M4857.09 7060.63c40.85,39.69 33.86,34.87 84.7,18.53 -13.85,-49.8 41.55,-27.42 -24.61,-45.38 -115.25,-31.27 -44.37,11.91 -60.09,26.85z"/>
  <path class="fil32" d="M3395.62 6462.57l80.93 3.21 0.82 -55.04 -75.51 2.14 -6.24 49.69z"/>
  <path class="fil32" d="M2962.36 6720.83c33.1,42.73 -43.88,60.71 57.48,17.12 35.06,-15.07 19.96,-19.25 33.03,-45.61 -65.14,-0.57 -52.77,-12.76 -90.5,28.49z"/>
  <path class="fil30" d="M3666.35 6859.02l0.98 47.36c73.72,-21.68 71.87,34.09 104.26,-31.06l-105.24 -16.3z"/>
  <path class="fil32" d="M4370.33 6464.25c-27.96,-54.01 19.94,-24.45 -43.63,-45.64 -67.14,-22.38 -38.11,10.02 -43.18,11.96 34.72,47.34 10.68,38.81 86.81,33.68z"/>
  <path class="fil28" d="M3182.39 6407.33l-66.44 -0.65c13,87.8 -19.59,38.74 45.13,58.48 33.4,-28.51 20.25,33.65 21.32,-57.82z"/>
  <path class="fil34" d="M4062.65 6413.39l-61.76 5.55c-8.94,79.7 -0.03,30.44 12.61,47.86l37.02 -3.94c16.42,-20.17 14.61,22.8 12.13,-49.47z"/>
  <path class="fil35" d="M3971.06 3002.3c14.83,50.3 -4.97,26.91 42.45,46.52 21.37,-22.41 12.1,-8.73 21.78,-46.52 -32.08,-17.69 -33.49,-14.84 -64.22,0z"/>
  <path class="fil36" d="M5838.08 6935.87l18.39 -3.18c5.19,-50.31 8.39,-78.47 -41.74,-56.39l23.35 59.57z"/>
 </g>
</svg>
